<svg width="303" height="358" viewBox="0 0 303 358" fill="none" xmlns="http://www.w3.org/2000/svg">
<g opacity="0.03" filter="url(#filter0_d)">
<path fill-rule="evenodd" clip-rule="evenodd" d="M151.077 0C184.492 0 216.936 11.2746 242.517 31.7494V31.7486C275.932 58.4781 295.586 96.484 297.964 138.739C300.24 180.457 284.638 221.273 255.173 250.714L157.502 347.033C153.718 350.78 147.156 350.746 143.373 346.999L47.0813 250.783C17.5501 221.275 1.91388 180.426 4.22414 138.74C6.56757 96.4865 26.2553 58.4807 59.6367 31.7494C85.1839 11.2746 117.662 0 151.077 0ZM85.4521 146.874C85.4521 183.04 114.882 212.448 151.077 212.448C187.27 212.448 216.735 183.041 216.701 146.874C216.701 110.709 187.271 81.3013 151.077 81.3013C114.883 81.3013 85.4521 110.708 85.4521 146.874Z" fill="white"/>
<path d="M151.077 114.913C133.432 114.913 119.101 129.232 119.101 146.863C119.101 164.495 133.432 178.814 151.077 178.814C168.722 178.814 183.052 164.495 183.052 146.863C183.052 129.232 168.722 114.913 151.077 114.913Z" fill="white"/>
</g>
<defs>
<filter id="filter0_d" x="0" y="0" width="302.182" height="357.826" filterUnits="userSpaceOnUse" color-interpolation-filters="sRGB">
<feFlood flood-opacity="0" result="BackgroundImageFix"/>
<feColorMatrix in="SourceAlpha" type="matrix" values="0 0 0 0 0 0 0 0 0 0 0 0 0 0 0 0 0 0 127 0"/>
<feOffset dy="4"/>
<feGaussianBlur stdDeviation="2"/>
<feColorMatrix type="matrix" values="0 0 0 0 0 0 0 0 0 0 0 0 0 0 0 0 0 0 0.25 0"/>
<feBlend mode="normal" in2="BackgroundImageFix" result="effect1_dropShadow"/>
<feBlend mode="normal" in="SourceGraphic" in2="effect1_dropShadow" result="shape"/>
</filter>
</defs>
</svg>
